<?xml version="1.0" encoding="UTF-8"?> <svg xmlns="http://www.w3.org/2000/svg" id="Layer_1" data-name="Layer 1" viewBox="0 0 75 75"><defs><style>.cls-1{fill:#fff;}</style></defs><path class="cls-1" d="M48.28,30.36c-.61,0-1.2,0-1.81,0a.92.92,0,0,0-.77.33c-.65.68-.65.67-.1,1.44a14.08,14.08,0,0,1-9.11,22.12A13.58,13.58,0,0,1,21.28,42.63a13.77,13.77,0,0,1,4.11-12.4,12.77,12.77,0,0,1,8.16-3.71,13.07,13.07,0,0,1,9.61,3c.23.18.35.13.56,0a2,2,0,0,0,.74-1.79c-.07-1.09,0-2.18,0-3.28a1.52,1.52,0,0,1,.44-1.11l2.19-2.24a1.11,1.11,0,0,1,2,.33c.39.79.78,1.58,1.15,2.38a1.29,1.29,0,0,0,.63.65c.78.38,1.57.8,2.35,1.2a1.16,1.16,0,0,1,.36,1.94C52.77,28.4,52,29.19,51.2,30a1.3,1.3,0,0,1-1,.37ZM46,40.28a9.32,9.32,0,0,0-.15-1.83,11.92,11.92,0,0,0-2.18-5.16c-.18-.24-.3-.23-.49,0-.37.41-.76.81-1.16,1.19-.19.19-.17.31,0,.52a9.25,9.25,0,0,1,1.66,6.46,9.1,9.1,0,0,1-10.58,8.13,9.3,9.3,0,0,1-6.65-13A8.68,8.68,0,0,1,34,31.13a8.34,8.34,0,0,1,6,1.75.32.32,0,0,0,.5-.05c.36-.4.74-.79,1.13-1.16.24-.23.2-.37-.05-.56A10.94,10.94,0,0,0,32.47,29a11.57,11.57,0,0,0-9,13.13A11.38,11.38,0,0,0,36.1,52,11.54,11.54,0,0,0,46,40.28ZM41.47,41a7.62,7.62,0,0,0-1.09-4.38c-.12-.2-.22-.23-.39,0-.4.43-.81.86-1.23,1.27a.38.38,0,0,0-.09.53,4.29,4.29,0,0,1,.48,2.18A4.49,4.49,0,0,1,34.49,45a4.59,4.59,0,0,1-4-6.48,4.38,4.38,0,0,1,6.06-2.29.41.41,0,0,0,.6-.09c.37-.41.76-.81,1.16-1.19.21-.21.22-.31,0-.48a6.52,6.52,0,0,0-4.15-1.08,7,7,0,0,0,1.13,13.95A6.78,6.78,0,0,0,41.47,41Zm-4.54-.58a1.21,1.21,0,0,0,0-.19c0-.11,0-.27-.12-.32s-.17.1-.24.18c-.23.21-.43.45-.67.65a1.08,1.08,0,0,1-1.51-.14,1.16,1.16,0,0,1,0-1.55c.2-.23.42-.43.62-.65.06,0,.16-.11.13-.2s-.15-.1-.25-.11a2.29,2.29,0,0,0-2.52,2.14,2.36,2.36,0,0,0,2.22,2.52A2.32,2.32,0,0,0,36.93,40.41ZM48.36,28.05h1.3a.48.48,0,0,0,.39-.14l.68-.69c.15-.15.1-.24-.06-.32a6.36,6.36,0,0,0-.64-.32,3.19,3.19,0,0,1-2-2c-.34-.87-.39-.85-1-.19-.15.16-.35.29-.34.56,0,.94,0,1.87,0,2.81,0,.23.09.32.31.32Z"></path></svg> 