<?xml version="1.0" encoding="UTF-8"?> <svg xmlns="http://www.w3.org/2000/svg" id="Layer_1" data-name="Layer 1" viewBox="0 0 75 75"><defs><style>.cls-1{fill:#fff;}</style></defs><path class="cls-1" d="M26.4,22.74a1.62,1.62,0,0,1,1.51,1.71v3.4a1.6,1.6,0,0,1-1.51,1.7h-3a1.61,1.61,0,0,1-1.52-1.7v-3.4a1.63,1.63,0,0,1,1.52-1.71Zm24.73,1.14a2.29,2.29,0,0,1,0,4.54H33a2.29,2.29,0,0,1,0-4.54Zm0,11.35a2.29,2.29,0,0,1,0,4.54H33a2.29,2.29,0,0,1,0-4.54Zm0,11.35a2.29,2.29,0,0,1,0,4.54H33a2.29,2.29,0,0,1,0-4.54ZM21.85,35.8a1.62,1.62,0,0,1,1.52-1.71h3a1.61,1.61,0,0,1,1.51,1.71v3.4a1.61,1.61,0,0,1-1.51,1.71h-3a1.62,1.62,0,0,1-1.52-1.71Zm4.55,9.65a1.6,1.6,0,0,1,1.51,1.7v3.4a1.61,1.61,0,0,1-1.51,1.71h-3a1.62,1.62,0,0,1-1.52-1.71v-3.4a1.61,1.61,0,0,1,1.52-1.7Z"></path></svg> 